<svg xmlns="http://www.w3.org/2000/svg" viewBox="567.906 258.739 992.492 898.036" width="520" height="520">
  <path fill="oklch(0.8012 0.1431 153.53)" fill-rule="evenodd" d="M1043.73 381.377c19.18-2.472 38.35 3.158 53.87 14.587 17.6 12.963 29.22 33.453 32.35 54.993 1.71 11.786.51 22.999-4.8 33.755-7.33 14.837-18.19 27.958-28.14 41.089l-37 48.749-136.758 181.364 160.708.076-.1-85.001c-.04-13.552-1.51-28.982.63-42.336.74-4.648 2.44-8.874 5.74-12.301 4.15-4.308 10.3-7.222 16.31-7.224 6.8-.003 13.82 2.879 18.48 7.871 3.45 3.694 4.57 7.878 5.35 12.766 2.2 13.894.85 29.487.84 43.545l-.15 82.702 109.08.055c12.75-.052 23.7-.965 34.99-7.469 27.07-15.596 87.97-92.462 112.75-120.776 9.33-10.669 19.41-20.662 29.4-30.715-7.74-19.651-10.03-41.548-2.5-61.724a72.77 72.77 0 0 1 38.4-40.78c17.82-8.002 39.65-9.068 57.94-2.038 18.61 7.149 34.83 22.159 42.76 40.506 8.29 19.185 8.78 43.599.85 62.971a69.54 69.54 0 0 1-37.02 37.589c-20.77 8.694-46.49 6.326-66.89-1.97-36.42 38.332-71.93 77.385-109.39 114.725-21.26 21.191-45.12 49.2-76.26 54.605-14.83 2.575-30.36 1.877-45.36 1.876l-88.86-.096.11 106.349c.01 28.826 2.89 60.816-3.82 88.874a76.9 76.9 0 0 1-19.69 36.316c-14.65 15.03-33.93 22.49-54.79 22.58-21.76.09-41.81-7.86-57.249-23.32-8.031-8.05-14.574-18.17-17.608-29.2-4.73-17.195-2.044-70.821-1.96-91.755l-131.928.023c-20.422.007-46.345 2.478-66.057-1.074-11.561-2.083-23.476-7.486-32.513-15.03-15.075-12.585-23.474-30.904-25.146-50.277-1.775-20.573-2.628-60.251 5.634-79.277 8.632-19.877 24.886-38.068 37.855-55.368l45.371-60.673c55.205-74.03 109.968-152.901 169.197-223.348 18.879-22.454 33.684-43.473 65.374-46.214m2.95 45.768c7.3-.811 14.4.327 20.75 4.194 10.39 6.333 14.28 16.725 17.03 27.916-5.78 22.448-50.51 72.908-66.48 93.635-36.106 46.875-71.102 94.644-106.629 141.961-20.78 27.676-44.477 56.225-63.417 84.911-2.624 3.975-5.579 8.507-6.1 13.304 1.167 3.335 2.104 4.96 4.513 7.542 3.581 1.545 7.238 1.827 11.094 2.05 25.154 1.453 51.11.194 76.333.187l150.236-.059.06 118.65c.01 18.695 1.69 39.189-.84 57.637-1.1 8.047-3.27 16.732-9.05 22.697-8.31 8.57-18.35 8.25-29.43 8.19-2.79-.68-5.4-1.48-7.98-2.76-6.73-3.34-11.41-8.527-13.92-15.629-2.96-8.383-2.23-17.702-2.16-26.443.15-19.98 3.34-58.515-2.56-75.498-2.97-8.557-9.13-16.782-17.82-20.125-13.9-5.353-34.262-2.819-49.123-2.801l-103.111.127c-17.396.021-35.66 1.258-52.938-.269-5.632-.497-11.377-1.889-16.416-4.497-6.132-3.174-8.939-8.284-10.817-14.765-4.561-15.733-3.49-55.452 4.728-69.905 8.893-15.64 21.497-30.211 32.334-44.575l62.388-82.432a11338 11338 0 0 1 100.582-133.954c19.597-25.974 38.833-53.761 60.753-77.811 5.49-6.033 10.18-9.122 17.99-11.478m435.65 107.525c16.09-1.616 30.47 10.073 32.18 26.16 1.7 16.087-9.91 30.53-25.99 32.324-16.2 1.807-30.78-9.913-32.5-26.126s10.08-30.729 26.31-32.358"/>
  <path fill="oklch(0.58 0.18 250)" fill-rule="evenodd" d="M696.022 259.382c38.341-1.277 77.027-.26 115.401-.252l212.197-.018 114.93-.02c25.2-.002 51.57-1.662 76.47 2.5 23.78 3.9 46 14.369 64.14 30.225 27.09 23.371 42.31 56.317 44.52 91.875.87 13.978.33 28.195.32 42.21l-.04 75.018.03 39.159c.09 8.323.91 17.204-.21 25.437-.85 6.244-3.13 12.625-7.53 17.274-2.97 3.143-6.78 5.18-11.17 5.036-9.41-.307-17.68-8.375-20.8-16.771-3.84-10.335-3.11-22.657-3.57-33.562-1.55-36.205-.71-72.671-.69-108.916 0-17.387 1.63-36.163-1.7-53.292-3.31-16.983-11.24-33.402-23.48-45.744a91.64 91.64 0 0 0-65.03-26.687l-349.139.15-99.759-.051c-17.512-.007-36.921-1.615-54.164 1.296-17.971 3.034-36.039 11.934-48.902 24.886-19.432 19.567-25.915 43.904-25.942 70.785l.109 441.114-.052 127.725c-.007 22.244-2.048 46.991 1.272 68.981a88.8 88.8 0 0 0 24.948 49.38c30.55 30.16 72.043 25.05 111.319 24.9h320.73l84.9.07c17.67.01 36.83 1.53 54.2-1.88 14.31-2.8 28.42-9.88 39.6-19.2 35.34-29.47 32.32-69.05 32.14-110.826-.1-25.791-.71-51.724.23-77.496.4-10.811-.34-24.575 6.27-33.687 2.77-3.822 6.6-6.49 11.34-7.122 5.3-.709 10.76 1.207 14.95 4.42 6.4 4.917 9.64 13.013 10.45 20.857 2.13 20.55.78 42.217.78 62.893.01 29.737 3 72.771-3.3 100.601a136.05 136.05 0 0 1-27.93 57.23c-23.1 27.88-54.93 44.35-90.87 47.53-12.85 1.14-25.92.67-38.82.68h-61.56l-193.564-.04-148.881.01c-27.395.02-57.265 2.49-84.244-1.87-22.39-3.61-43.782-14.1-61.074-28.68-29.446-24.82-43.128-58.24-46.15-96-1.269-15.85-.635-32.023-.614-47.93l.063-77.987-.002-249.641-.049-183.774-.016-54.394c.003-12.925-.462-26.147 1.291-38.972 3.644-26.661 13.968-51.794 31.627-72.24 24.53-28.402 58.14-42.396 95.025-45.19"/>
</svg>
